<svg width="172" height="78" viewBox="0 0 172 78" fill="none" xmlns="http://www.w3.org/2000/svg">
<path d="M9.05562 55.0788H52.1314C52.4156 55.131 52.7072 55.1585 53.0039 55.1585H62.9666C63.9836 55.1585 64.9895 55.0652 65.9739 54.8827C65.8866 55.7203 66.0109 56.5693 66.3181 57.3375C67.1053 59.3053 68.9476 60.4985 71.0164 60.4985H86.0799C88.8214 60.4985 91.496 61.5598 93.4769 63.4789L93.4878 63.4894L93.4988 63.4998L99.7845 69.4673C102.896 72.4764 106.989 74.1274 111.345 74.1274H121.228C123.15 74.1274 125.115 72.9943 125.926 70.9663C126.733 68.9487 126.106 66.8217 124.784 65.4992L124.758 65.4731L124.731 65.4477L114.787 55.9814C114.784 55.9781 114.781 55.9749 114.777 55.9716C114.025 55.244 113.215 54.5958 112.359 54.0311H112.547C115.81 54.0311 119.019 53.0694 121.743 51.2682C122.543 52.7927 124.174 54.0311 126.255 54.0311H136.138C140.495 54.0311 144.588 52.3799 147.7 49.3703C147.703 49.3669 147.707 49.3636 147.71 49.3602L167.297 30.7291L167.396 30.6344L167.487 30.5309C168.62 29.2364 169.317 27.1915 168.493 25.1299L168.472 25.0774L168.449 25.0257C167.685 23.3066 165.864 21.9689 163.795 21.9689H150.846C150.88 21.2663 150.769 20.5628 150.528 19.9126C149.796 17.6965 147.682 16.6289 145.862 16.6289H130.718C127.968 16.6289 125.316 15.5628 123.435 13.6819L123.408 13.6547L123.38 13.6282L117.004 7.57096L116.997 7.56413L116.989 7.55735C113.895 4.65665 109.819 3 105.533 3H95.5703C93.6487 3 91.6832 4.13306 90.872 6.16105C90.065 8.17863 90.6919 10.3057 92.0143 11.6282L92.0404 11.6542L92.0671 11.6797L102.011 21.146C102.014 21.1492 102.018 21.1524 102.021 21.1556C102.774 21.8837 103.588 22.5318 104.45 23.0962H80.6602C76.3927 23.0962 72.2175 24.7411 69.0987 27.7572L63.385 33.1922C63.2611 33.0367 63.127 32.8864 62.9827 32.742L62.9567 32.7161L62.9301 32.6907L46.2815 16.8387C43.1626 13.8223 38.9871 12.1772 34.7194 12.1772H12.0046C8.83338 12.1772 6.29472 14.7159 6.29472 17.887C6.29472 20.9785 8.91309 23.5969 12.0046 23.5969H19.8153C22.6267 23.5969 25.238 24.6524 27.2366 26.5209L33.144 32.1822H27.0681C22.8004 32.1822 18.625 33.8272 15.5061 36.8436L5.55247 46.3194L5.52576 46.3449L5.49968 46.371C4.20844 47.6622 3.51829 49.8885 4.37816 51.8892C5.13036 53.7109 6.95856 55.0788 9.05562 55.0788ZM97.225 51.3105L97.8918 50.675C97.915 50.7403 97.9395 50.8054 97.9654 50.8701L97.9865 50.9226L98.0094 50.9743C98.0598 51.0877 98.1147 51.1999 98.174 51.3105H97.225ZM118.907 26.4524C118.883 26.3871 118.859 26.322 118.833 26.2573C118.772 26.1059 118.706 25.959 118.633 25.8169H119.573L118.907 26.4524ZM44.2038 41.4499H54.7038L52.3813 43.6591H37.6324C39.507 42.2425 41.8357 41.4499 44.2038 41.4499Z" fill="#FDFCFD" stroke="#1A1523" stroke-width="6"/>
</svg>
