<svg width="198" height="95" viewBox="0 0 198 95" fill="none" xmlns="http://www.w3.org/2000/svg">
<path d="M137.586 32.41L110.146 58.61C109.146 59.56 109.046 61.18 110.106 62.27C110.596 62.78 111.306 63.01 112.016 63.01H124.916C129.246 63.01 133.406 61.34 136.536 58.35L157.856 37.99C158.096 37.76 158.416 37.63 158.746 37.63C159.276 37.63 159.756 37.95 159.946 38.44C160.136 38.93 160.026 39.49 159.636 39.86L139.966 58.65C138.746 59.82 138.886 62.02 140.906 62.95C140.976 62.98 141.046 63 141.126 63H159.486C160.226 63 160.946 62.71 161.476 62.2L189.586 35.35C190.806 34.18 190.666 31.98 188.646 31.05C188.576 31.02 188.506 31 188.426 31H168.686C168.116 31 167.616 30.66 167.406 30.13C167.196 29.61 167.326 29.01 167.736 28.62C168.526 27.86 168.776 26.7 168.376 25.69C167.966 24.67 166.986 24.01 165.886 24.01H146.936C142.536 24.01 138.306 22.31 135.116 19.27L127.246 11.74C124.066 8.7 119.836 7 115.426 7H102.956C101.636 7 100.486 8.01 100.386 9.42C100.336 10.2 100.696 10.95 101.266 11.5L113.586 23.27C116.766 26.31 120.996 28 125.396 28H135.696C136.406 28 137.116 28.23 137.606 28.74C138.666 29.83 138.556 31.45 137.556 32.4L137.586 32.41ZM100.136 36.22C100.696 36.22 101.206 36.56 101.416 37.08C101.626 37.6 101.496 38.2 101.086 38.59L73.0464 65.37C72.5664 65.83 72.2264 66.43 72.1864 67.09C72.0764 68.77 73.3664 70.01 74.8664 70.01H94.1764C98.5764 70.01 102.806 71.71 105.996 74.75L113.866 82.28C117.046 85.32 121.276 87.02 125.686 87.02H138.046C138.756 87.02 139.466 86.79 139.956 86.28C141.016 85.19 140.916 83.55 139.916 82.6L127.546 70.78C124.346 67.72 120.096 66.02 115.666 66.02H105.296C104.246 66.02 103.306 65.38 102.926 64.41C102.536 63.44 102.786 62.33 103.546 61.61L130.906 35.48C131.416 34.99 131.776 34.34 131.776 33.63C131.786 32.11 130.596 31.01 129.216 31.01H86.9164C82.5864 31.01 78.4164 32.68 75.2864 35.67L51.2164 58.66C50.2364 59.6 50.1364 61.19 51.1664 62.27C51.6564 62.78 52.3664 63.01 53.0764 63.01H64.3864C68.9764 63.01 73.3964 61.24 76.7064 58.07L99.1864 36.6C99.4464 36.36 99.7864 36.22 100.136 36.23V36.22ZM46.1064 39.43C46.1064 40.92 44.9364 42.01 43.5764 42.01H27.3164C26.5764 42.01 25.8664 42.29 25.3264 42.81L8.36643 59.01C8.31643 59.06 8.27643 59.12 8.24643 59.18C7.40643 61.28 8.84643 63.01 10.5664 63.01H68.0464C69.9764 63.01 71.5464 61.44 71.5464 59.51C71.5464 57.58 69.9764 56.01 68.0464 56.01H43.6464C42.7964 56.01 41.9464 55.67 41.4564 54.98C40.7064 53.93 40.8764 52.55 41.7564 51.7L42.7364 50.77C45.9364 47.71 50.1964 46.01 54.6164 46.01H73.5364C74.2464 46.01 74.9564 45.78 75.4464 45.27C76.5064 44.18 76.4064 42.54 75.4064 41.59L54.6064 21.73C51.4264 18.7 47.2064 17 42.8064 17H14.3164C12.8064 17 11.3964 17.92 10.9464 19.36C10.1864 21.78 11.9664 24 14.2664 24H24.2664C28.5964 24 32.7564 25.67 35.8864 28.66L45.2264 37.57C45.7364 38.06 46.0964 38.71 46.0964 39.42L46.1064 39.43Z" fill="white" stroke="black" stroke-width="14" stroke-miterlimit="10"/>
<path d="M138.373 32.41L110.933 58.61C109.933 59.56 109.833 61.18 110.893 62.27C111.383 62.78 112.093 63.01 112.803 63.01H125.703C130.033 63.01 134.193 61.34 137.323 58.35L158.643 37.99C158.883 37.76 159.203 37.63 159.533 37.63C160.063 37.63 160.543 37.95 160.733 38.44C160.923 38.93 160.813 39.49 160.423 39.86L140.753 58.65C139.533 59.82 139.673 62.02 141.693 62.95C141.763 62.98 141.833 63 141.913 63H160.273C161.013 63 161.733 62.71 162.263 62.2L190.373 35.35C191.593 34.18 191.453 31.98 189.433 31.05C189.363 31.02 189.293 31 189.213 31H169.473C168.903 31 168.403 30.66 168.193 30.13C167.983 29.61 168.113 29.01 168.523 28.62C169.313 27.86 169.563 26.7 169.163 25.69C168.753 24.67 167.773 24.01 166.673 24.01H147.723C143.323 24.01 139.093 22.31 135.903 19.27L128.033 11.74C124.853 8.7 120.623 7 116.213 7H103.743C102.423 7 101.273 8.01 101.173 9.42C101.123 10.2 101.483 10.95 102.053 11.5L114.373 23.27C117.553 26.31 121.783 28 126.183 28H136.483C137.193 28 137.903 28.23 138.393 28.74C139.453 29.83 139.343 31.45 138.343 32.4L138.373 32.41ZM100.923 36.22C101.483 36.22 101.993 36.56 102.203 37.08C102.413 37.6 102.283 38.2 101.873 38.59L73.8333 65.37C73.3533 65.83 73.0133 66.43 72.9733 67.09C72.8633 68.77 74.1533 70.01 75.6533 70.01H94.9633C99.3633 70.01 103.593 71.71 106.783 74.75L114.653 82.28C117.833 85.32 122.063 87.02 126.473 87.02H138.833C139.543 87.02 140.253 86.79 140.743 86.28C141.803 85.19 141.703 83.55 140.703 82.6L128.333 70.78C125.133 67.72 120.883 66.02 116.453 66.02H106.083C105.033 66.02 104.093 65.38 103.713 64.41C103.323 63.44 103.573 62.33 104.333 61.61L131.693 35.48C132.203 34.99 132.563 34.34 132.563 33.63C132.573 32.11 131.383 31.01 130.003 31.01H87.7033C83.3733 31.01 79.2033 32.68 76.0733 35.67L52.0033 58.66C51.0233 59.6 50.9233 61.19 51.9533 62.27C52.4433 62.78 53.1533 63.01 53.8633 63.01H65.1733C69.7633 63.01 74.1833 61.24 77.4933 58.07L99.9733 36.6C100.233 36.36 100.573 36.22 100.923 36.23V36.22ZM46.8933 39.43C46.8933 40.92 45.7233 42.01 44.3633 42.01H28.1033C27.3633 42.01 26.6533 42.29 26.1133 42.81L9.1633 59.01C9.1133 59.06 9.0733 59.12 9.0433 59.18C8.2033 61.28 9.6433 63.01 11.3633 63.01H68.8433C70.7733 63.01 72.3433 61.44 72.3433 59.51C72.3433 57.58 70.7733 56.01 68.8433 56.01H44.4433C43.5933 56.01 42.7433 55.67 42.2533 54.98C41.5033 53.93 41.6733 52.55 42.5533 51.7L43.5333 50.77C46.7333 47.71 50.9933 46.01 55.4133 46.01H74.3333C75.0433 46.01 75.7533 45.78 76.2433 45.27C77.3033 44.18 77.2033 42.54 76.2033 41.59L55.4033 21.73C52.2233 18.7 48.0033 17 43.6033 17H15.1133C13.6033 17 12.1933 17.92 11.7433 19.36C10.9833 21.78 12.7633 24 15.0633 24H25.0633C29.3933 24 33.5533 25.67 36.6833 28.66L46.0233 37.57C46.5333 38.06 46.8933 38.71 46.8933 39.42V39.43Z" fill="white"/>
</svg>
