<?xml version="1.0" encoding="UTF-8"?>
<svg id="Layer_2" data-name="Layer 2" xmlns="http://www.w3.org/2000/svg" viewBox="0 0 192.37 90">
  <defs>
    <style>
      .cls-1 {
        stroke: var(--text-high-contrast);
        stroke-miterlimit: 10;
        stroke-width: 10px;
      }
      .cls-2 {
        fill: var(--elevation-bg);
      }
    </style>
  </defs>
  <g id="Layer_1-2" data-name="Layer 1">
    <g>
      <path class="cls-1" d="m134.58,30.4l-27.44,26.2c-1,.95-1.1,2.57-.04,3.66.49.51,1.2.74,1.91.74h12.9c4.33,0,8.49-1.67,11.62-4.66l21.32-20.36c.24-.23.56-.36.89-.36.53,0,1.01.32,1.2.81s.08,1.05-.31,1.42l-19.67,18.79c-1.22,1.17-1.08,3.37.94,4.3.07.03.14.05.22.05h18.36c.74,0,1.46-.29,1.99-.8l28.11-26.85c1.22-1.17,1.08-3.37-.94-4.3-.07-.03-.14-.05-.22-.05h-19.74c-.57,0-1.07-.34-1.28-.87-.21-.52-.08-1.12.33-1.51.79-.76,1.04-1.92.64-2.93-.41-1.02-1.39-1.68-2.49-1.68h-18.95c-4.4,0-8.63-1.7-11.82-4.74l-7.87-7.53c-3.18-3.04-7.41-4.74-11.82-4.74h-12.47c-1.32,0-2.47,1.01-2.57,2.42-.05.78.31,1.53.88,2.08l12.32,11.77c3.18,3.04,7.41,4.73,11.81,4.73h10.3c.71,0,1.42.23,1.91.74,1.06,1.09.95,2.71-.05,3.66Zm-37.45,3.81c.56,0,1.07.34,1.28.86.21.52.08,1.12-.33,1.51l-28.04,26.78c-.48.46-.82,1.06-.86,1.72-.11,1.68,1.18,2.92,2.68,2.92h19.31c4.4,0,8.63,1.7,11.82,4.74l7.87,7.53c3.18,3.04,7.41,4.74,11.82,4.74h12.36c.71,0,1.42-.23,1.91-.74,1.06-1.09.96-2.73-.04-3.68l-12.37-11.82c-3.2-3.06-7.45-4.76-11.88-4.76h-10.37c-1.05,0-1.99-.64-2.37-1.61-.39-.97-.14-2.08.62-2.8l27.36-26.13c.51-.49.87-1.14.87-1.85.01-1.52-1.18-2.62-2.56-2.62h-42.3c-4.33,0-8.5,1.67-11.63,4.66l-24.07,22.99c-.98.94-1.08,2.53-.05,3.61.49.51,1.2.74,1.91.74h11.31c4.59,0,9.01-1.77,12.32-4.94l22.48-21.47c.26-.24.6-.38.95-.37Zm-54.03,3.21c0,1.49-1.17,2.58-2.53,2.58h-16.26c-.74,0-1.45.28-1.99.8L5.36,57c-.05.05-.09.11-.12.17-.84,2.1.6,3.83,2.32,3.83h57.48c1.93,0,3.5-1.57,3.5-3.5s-1.57-3.5-3.5-3.5h-24.4c-.85,0-1.7-.34-2.19-1.03-.75-1.05-.58-2.43.3-3.28l.98-.93c3.2-3.06,7.46-4.76,11.88-4.76h18.92c.71,0,1.42-.23,1.91-.74,1.06-1.09.96-2.73-.04-3.68l-20.8-19.86c-3.18-3.03-7.4-4.73-11.8-4.73H11.31c-1.51,0-2.92.92-3.37,2.36-.76,2.42,1.02,4.64,3.32,4.64h10c4.33,0,8.49,1.67,11.62,4.66l9.34,8.91c.51.49.87,1.14.87,1.85Z"/>
      <path class="cls-2" d="m135.37,30.4l-27.44,26.2c-1,.95-1.1,2.57-.04,3.66.49.51,1.2.74,1.91.74h12.9c4.33,0,8.49-1.67,11.62-4.66l21.32-20.36c.24-.23.56-.36.89-.36.53,0,1.01.32,1.2.81s.08,1.05-.31,1.42l-19.67,18.79c-1.22,1.17-1.08,3.37.94,4.3.07.03.14.05.22.05h18.36c.74,0,1.46-.29,1.99-.8l28.11-26.85c1.22-1.17,1.08-3.37-.94-4.3-.07-.03-.14-.05-.22-.05h-19.74c-.57,0-1.07-.34-1.28-.87-.21-.52-.08-1.12.33-1.51.79-.76,1.04-1.92.64-2.93-.41-1.02-1.39-1.68-2.49-1.68h-18.95c-4.4,0-8.63-1.7-11.82-4.74l-7.87-7.53c-3.18-3.04-7.41-4.74-11.82-4.74h-12.47c-1.32,0-2.47,1.01-2.57,2.42-.05.78.31,1.53.88,2.08l12.32,11.77c3.18,3.04,7.41,4.73,11.81,4.73h10.3c.71,0,1.42.23,1.91.74,1.06,1.09.95,2.71-.05,3.66Zm-37.45,3.81c.56,0,1.07.34,1.28.86.21.52.08,1.12-.33,1.51l-28.04,26.78c-.48.46-.82,1.06-.86,1.72-.11,1.68,1.18,2.92,2.68,2.92h19.31c4.4,0,8.63,1.7,11.82,4.74l7.87,7.53c3.18,3.04,7.41,4.74,11.82,4.74h12.36c.71,0,1.42-.23,1.91-.74,1.06-1.09.96-2.73-.04-3.68l-12.37-11.82c-3.2-3.06-7.45-4.76-11.88-4.76h-10.37c-1.05,0-1.99-.64-2.37-1.61-.39-.97-.14-2.08.62-2.8l27.36-26.13c.51-.49.87-1.14.87-1.85.01-1.52-1.18-2.62-2.56-2.62h-42.3c-4.33,0-8.5,1.67-11.63,4.66l-24.07,22.99c-.98.94-1.08,2.53-.05,3.61.49.51,1.2.74,1.91.74h11.31c4.59,0,9.01-1.77,12.32-4.94l22.48-21.47c.26-.24.6-.38.95-.37Zm-54.03,3.21c0,1.49-1.17,2.58-2.53,2.58h-16.26c-.74,0-1.45.28-1.99.8L6.16,57c-.05.05-.09.11-.12.17-.84,2.1.6,3.83,2.32,3.83h57.48c1.93,0,3.5-1.57,3.5-3.5s-1.57-3.5-3.5-3.5h-24.4c-.85,0-1.7-.34-2.19-1.03-.75-1.05-.58-2.43.3-3.28l.98-.93c3.2-3.06,7.46-4.76,11.88-4.76h18.92c.71,0,1.42-.23,1.91-.74,1.06-1.09.96-2.73-.04-3.68l-20.8-19.86c-3.18-3.03-7.4-4.73-11.8-4.73H12.11c-1.51,0-2.92.92-3.37,2.36-.76,2.42,1.02,4.64,3.32,4.64h10c4.33,0,8.49,1.67,11.62,4.66l9.34,8.91c.51.49.87,1.14.87,1.85Z"/>
    </g>
  </g>
</svg>